<?xml version="1.0" encoding="UTF-8"?>
<svg width="16px" height="16px" viewBox="0 0 16 16" version="1.1" xmlns="http://www.w3.org/2000/svg" xmlns:xlink="http://www.w3.org/1999/xlink">
    <!-- Generator: Sketch 43.1 (39012) - http://www.bohemiancoding.com/sketch -->
    <title>Fill 3</title>
    <desc>Created with Sketch.</desc>
    <defs></defs>
    <g id="Page-1" stroke="none" stroke-width="1" fill="none" fill-rule="evenodd">
        <g id="Main" transform="translate(-843.000000, -28.000000)" fill="#FF7878">
            <g id="Group" transform="translate(216.000000, 16.000000)">
                <g id="github" transform="translate(628.000000, 12.000000)">
                    <path d="M6.99926333,0 C2.58218484,0 -1,3.58169373 -1,8.00024556 C-1,11.5347924 1.29202861,14.5330428 4.47100893,15.5909021 C4.87126677,15.6645692 5.0171276,15.4175389 5.0171276,15.2053777 C5.0171276,15.0158077 5.010252,14.512416 5.00632309,13.8449922 C2.78108598,14.3282483 2.31158108,12.7723994 2.31158108,12.7723994 C1.94766567,11.848123 1.42315602,11.602075 1.42315602,11.602075 C0.696798551,11.1060499 1.47816078,11.1158722 1.47816078,11.1158722 C2.28113202,11.1723503 2.70348998,11.9404524 2.70348998,11.9404524 C3.41707849,13.162835 4.57610731,12.8097241 5.03186101,12.6049296 C5.10454587,12.0882777 5.31130483,11.7356579 5.5396728,11.5357746 C3.76331379,11.3339268 1.8956076,10.6473495 1.8956076,7.58181651 C1.8956076,6.70861598 2.20746493,5.99404524 2.71920562,5.43515762 C2.63669849,5.23281869 2.36216581,4.41904294 2.79778385,3.31796556 C2.79778385,3.31796556 3.46913656,3.10285767 4.99748304,4.13812579 C5.63544001,3.96034255 6.32005279,3.87194205 7.00024556,3.86850425 C7.67994721,3.87194205 8.36406888,3.96034255 9.00300807,4.13812579 C10.5303723,3.10285767 11.2007428,3.31796556 11.2007428,3.31796556 C11.6373431,4.41904294 11.3628104,5.23281869 11.2807944,5.43515762 C11.7935173,5.99404524 12.1029191,6.70861598 12.1029191,7.58181651 C12.1029191,10.6552073 10.2322662,11.3314712 8.45050493,11.5293901 C8.73731545,11.7764204 8.99318579,12.2645876 8.99318579,13.0110808 C8.99318579,14.0802357 8.98336352,14.9431229 8.98336352,15.2053777 C8.98336352,15.4195034 9.12775101,15.6684981 9.53341109,15.590411 C12.7099358,14.5300961 15,11.5338101 15,8.00024556 C15,3.58169373 11.4178152,0 6.99926333,0" id="Fill-3"></path>
                </g>
            </g>
        </g>
    </g>
</svg>