<?xml version="1.0" encoding="UTF-8"?>
<svg width="18px" height="17px" viewBox="0 0 18 17" version="1.1" xmlns="http://www.w3.org/2000/svg" xmlns:xlink="http://www.w3.org/1999/xlink">
    <!-- Generator: Sketch 45.1 (43504) - http://www.bohemiancoding.com/sketch -->
    <title>rocket</title>
    <desc>Created with Sketch.</desc>
    <defs></defs>
    <g id="Page-2" stroke="none" stroke-width="1" fill="none" fill-rule="evenodd">
        <g id="rocket" transform="translate(9.020815, 8.020815) rotate(45.000000) translate(-9.020815, -8.020815) translate(3.020815, -2.979185)">
            <path d="M8.5,15.3270446 C7.78519281,16.4024537 6.8925964,17 6,17 C5.1074036,17 4.21480719,16.4024537 3.5,15.3270446 L3.5,15.5 L1,18 L0,13 L2.05456612,10.6519244 C2.01879609,10.2330921 2,9.79749202 2,9.34635088 C2,4.69270177 4.77466174,4.71828187e-16 6,0 C7.22533826,0 10,4.69270177 10,9.34635088 C10,9.79749202 9.98120391,10.2330921 9.94543388,10.6519244 L12,13 L11,18 L8.5,15.5 L8.5,15.3270446 L8.5,15.3270446 Z M6,8 C6.82842712,8 7.5,7.32842712 7.5,6.5 C7.5,5.67157288 6.82842712,5 6,5 C5.17157288,5 4.5,5.67157288 4.5,6.5 C4.5,7.32842712 5.17157288,8 6,8 Z" id="Combined-Shape" fill="#8D9BB0"></path>
            <path d="M8.5,15.3270446 C7.78519281,16.4024537 6.8925964,17 6,17 C5.1074036,17 4.21480719,16.4024537 3.5,15.3270446 L3.5,15.5 L1,18 L0,13 L2.05456612,10.6519244 C2.01879609,10.2330921 2,9.79749202 2,9.34635088 C2,4.69270177 4.77466174,4.71828187e-16 6,0 C7.22533826,0 10,4.69270177 10,9.34635088 C10,9.79749202 9.98120391,10.2330921 9.94543388,10.6519244 L12,13 L11,18 L8.5,15.5 L8.5,15.3270446 L8.5,15.3270446 Z M1.61413433,15.9716521 L2.5,15.0857864 L2.5,12.0160697 L4.33281163,14.7734881 C4.87813365,15.5939111 5.48491391,16 6,16 C6.51508609,16 7.12186635,15.5939111 7.66718837,14.7734881 L9.5,12.0160697 L9.5,15.0857864 L10.3858657,15.9716521 L10.9227144,13.2874087 L8.9128815,10.9904568 L8.94906099,10.56683 C8.98283678,10.1713482 9,9.76399756 9,9.34635088 C9,7.37025929 8.44691859,5.20293265 7.5588796,3.36265979 C7.17892291,2.57527996 6.7619339,1.90638892 6.37756423,1.45071945 C6.23656537,1.28356559 6.10736491,1.15432354 6,1.06807977 C5.89263509,1.15432354 5.76343463,1.28356559 5.62243577,1.45071945 C5.2380661,1.90638892 4.82107709,2.57527996 4.4411204,3.36265979 C3.55308141,5.20293265 3,7.37025929 3,9.34635088 C3,9.76399756 3.01716322,10.1713482 3.05093901,10.56683 L3.0871185,10.9904568 L1.07728564,13.2874087 L1.61413433,15.9716521 Z M6,9 C4.61928813,9 3.5,7.88071187 3.5,6.5 C3.5,5.11928813 4.61928813,4 6,4 C7.38071187,4 8.5,5.11928813 8.5,6.5 C8.5,7.88071187 7.38071187,9 6,9 Z M6,8 C6.82842712,8 7.5,7.32842712 7.5,6.5 C7.5,5.67157288 6.82842712,5 6,5 C5.17157288,5 4.5,5.67157288 4.5,6.5 C4.5,7.32842712 5.17157288,8 6,8 Z" id="Combined-Shape" fill-opacity="0.15" fill="#000000"></path>
            <polygon id="Path-3" fill="#F29718" points="4.5 18 7.5 18 6 22"></polygon>
        </g>
    </g>
</svg>