<?xml version="1.0" encoding="UTF-8"?>
<svg width="16px" height="16px" viewBox="0 0 16 16" version="1.1" xmlns="http://www.w3.org/2000/svg" xmlns:xlink="http://www.w3.org/1999/xlink">
    <!-- Generator: Sketch 45.1 (43504) - http://www.bohemiancoding.com/sketch -->
    <title>Combined Shape</title>
    <desc>Created with Sketch.</desc>
    <defs>
        <path d="M6.58714932,7.33880678 L8.72177985,6.62381136 L9.41240043,8.68567039 L7.2777699,9.40066581 L6.58714932,7.33880678 Z M15.3293375,5.79991964 C16.9793978,11.3001205 15.7002813,13.6792772 10.2000804,15.3293375 C4.69987946,16.9793978 2.32072278,15.7002813 0.670662511,10.2000804 C-0.979397761,4.69987946 0.299718729,2.32072278 5.79991964,0.670662511 C11.3001205,-0.979397761 13.6792772,0.299718729 15.3293375,5.79991964 Z M12.5536547,9.36865464 C12.9885543,9.22795183 13.2187953,8.75467873 13.0780925,8.31977912 C12.9373897,7.88487952 12.4641166,7.65463855 12.0292169,7.79534136 L10.9931326,8.14070281 L10.3024097,6.08132526 L11.338494,5.73596381 C11.7733936,5.595261 12.0036346,5.1219879 11.8629318,4.68708829 C11.722229,4.25218868 11.2489559,4.02194772 10.8140563,4.16265053 L9.77797192,4.50801198 L9.4198193,3.43355413 C9.27911649,2.99865452 8.80584339,2.76841355 8.37094378,2.90911637 C7.93604418,3.04981918 7.70580321,3.52309228 7.84650602,3.95799189 L8.20465864,5.03244974 L6.0685341,5.74875498 L5.71038148,4.67429713 C5.56967867,4.23939752 5.09640557,4.00915655 4.66150596,4.14985936 C4.22660635,4.29056218 3.99636539,4.76383528 4.1370682,5.19873489 L4.49522082,6.27319274 L3.45913646,6.61855419 C3.02423685,6.759257 2.79399588,7.23253011 2.9346987,7.66742971 C3.04981918,8 3.36959831,8.2174498 3.70216859,8.23024097 C3.79170675,8.24303213 3.89403607,8.2174498 3.98357422,8.19186747 L5.01965858,7.84650602 L5.71038148,9.90588357 L4.67429713,10.251245 C4.23939752,10.3919478 4.00915655,10.8652209 4.14985936,11.3001205 C4.26497985,11.6326908 4.58475897,11.8501406 4.91732926,11.8629318 C5.00686741,11.875723 5.10919673,11.8501406 5.19873489,11.8245583 L6.23481924,11.4791969 L6.59297186,12.5536547 C6.70809234,12.886225 7.02787147,13.1036748 7.36044175,13.116466 C7.44997991,13.1292571 7.55230923,13.1036748 7.64184738,13.0780925 C8.07674699,12.9373897 8.30698796,12.4641166 8.16628514,12.0292169 L7.80813253,10.9547591 L9.94425707,10.2384539 L10.3024097,11.3129117 C10.4175302,11.645482 10.7373093,11.8629318 11.0698796,11.875723 C11.1594177,11.8885141 11.2617471,11.8629318 11.3512852,11.8373495 C11.7861848,11.6966467 12.0164258,11.2233736 11.875723,10.7884739 L11.5175703,9.7140161 L12.5536547,9.36865464 Z" id="path-1"></path>
    </defs>
    <g id="Page-2" stroke="none" stroke-width="1" fill="none" fill-rule="evenodd">
        <g id="Combined-Shape" fill-rule="nonzero">
            <use fill="#41A6D9" fill-rule="evenodd" xlink:href="#path-1"></use>
            <path stroke-opacity="0.16" stroke="#000000" stroke-width="1" d="M7.2200642,7.65411419 L7.59307731,8.76775094 L8.77948555,8.37036298 L8.40647244,7.25672623 L7.2200642,7.65411419 Z M14.8504243,5.94359358 C13.2799408,0.708648577 11.1800579,-0.421363634 5.94359358,1.14957565 C0.708648577,2.72005915 -0.421363634,4.81994213 1.14957565,10.0564064 C2.72005915,15.2913514 4.81994213,16.4213636 10.0564064,14.8504243 C15.2913514,13.2799408 16.4213636,11.1800579 14.8504243,5.94359358 Z M12.7099144,9.84361435 L12.1500177,10.0302466 L12.3514452,10.6345638 C12.57719,11.3323205 12.2028414,12.0873627 11.4886458,12.3181114 C11.2983357,12.3724857 11.1660354,12.3945358 11.050663,12.3753536 C10.5063268,12.3544175 10.0107011,11.9987332 9.82806803,11.4710256 L9.62831342,10.8717618 L8.4402963,11.2701388 L8.6420074,11.8753068 C8.86775222,12.5730635 8.49340356,13.3281057 7.77920795,13.5588544 C7.58889792,13.6132287 7.45659761,13.6352788 7.34122519,13.6160965 C6.79688896,13.5951605 6.3012633,13.2394762 6.11863021,12.7117686 L5.91852449,12.1114514 L5.33609545,12.3053203 C5.14578542,12.3596946 5.01348512,12.3817446 4.8981127,12.3625624 C4.35377646,12.3416264 3.8581508,11.9859421 3.67413711,11.4540307 C3.44839229,10.756274 3.82274095,10.0012318 4.51618324,9.77690337 L5.07704181,9.58995052 L4.70424607,8.47846691 L4.12093478,8.67262945 C3.93062476,8.72700374 3.79832445,8.74905379 3.68295203,8.72987156 C3.13861579,8.70893555 2.64299013,8.35325125 2.45897644,7.82133986 C2.23323162,7.12358315 2.60758028,6.36854094 3.30102258,6.14421254 L3.86277345,5.95696225 L3.66134594,5.35264503 C3.43560112,4.65488832 3.80994978,3.89984612 4.50759582,3.67413711 C5.20535252,3.44839229 5.96039473,3.82274095 6.18472313,4.51618324 L6.38447774,5.11544708 L7.57249487,4.71707008 L7.37078376,4.11190203 C7.14503895,3.41414533 7.5193876,2.65910312 8.21703364,2.43339411 C8.91479035,2.20764929 9.66983255,2.58199795 9.89416095,3.27544025 L10.0942025,3.87556492 L10.6601461,3.68692827 C11.3579028,3.46118345 12.112945,3.83553211 12.3386541,4.53317815 C12.5643989,5.23093485 12.1900502,5.98597706 11.4966079,6.21030546 L10.9357494,6.39725832 L11.3084807,7.50854989 L11.8753068,7.3196191 C12.5730635,7.09387429 13.3281057,7.46822294 13.5538147,8.16586898 C13.779306,8.86284196 13.4060511,9.61697183 12.7099144,9.84361435 Z"></path>
        </g>
    </g>
</svg>