<svg xmlns="http://www.w3.org/2000/svg" viewBox="0 0 100 100">
  <g fill="none" fill-rule="evenodd">
    <path fill="#FF7878" d="M33.9999994,0 C22.9166667,0 19.375,-7.78046664e-09 14.375,1.66666667 C8.48333359,3.75 3.75,8.48333359 1.66666667,14.375 C0,19.375 0,22.9166667 0,33.9999994 C0,33.9999994 6.18994337e-08,65.9999975 0,65.9999975 C6.18994337e-08,77.0833333 4.96663629e-08,80.625 1.66666667,85.625 C3.75386556,91.5166664 8.48333359,96.25 14.375,98.3333333 C19.375,100 22.9166667,100 33.9999994,100 L65.9999975,100 C77.0833333,100 80.625,100 85.625,98.3333333 C91.5166664,96.25 96.25,91.5166664 98.3333333,85.625 C100,80.625 100,77.0833333 100,65.9999975 L100,33.9999994 C100,22.9166667 100,19.375 98.3333333,14.375 C96.25,8.54166667 91.4499982,3.75 85.6166649,1.66666667 C80.6166649,4.66909474e-09 77.0833333,1.75887512e-08 65.9999975,0 C71.8333308,1.75887512e-08 33.9999994,0 33.9999994,0 Z"/>
    <path fill="#A64A55" d="M49.9989197,82 C69.9989197,82 71.6095405,65.9605808 71.6095405,65.9605808 C71.8251853,64.8777819 71.114462,63.8308467 70.0232457,63.6558697 C70.0232457,63.6558697 65.3933078,62.5 49.9989197,62.5 C34.6045316,62.5 29.9762586,63.6558697 29.9762586,63.6558697 C28.8848011,63.8459276 28.1480784,64.8926228 28.3902242,65.9605808 C28.3902242,65.9605808 29.9989197,82 49.9989197,82 Z"/>
    <path fill="#FFF" d="M58,78.5 C56.1818182,79.5795455 54.0909091,80 50,80 C45.9090909,80 43.8181818,79.5795455 42,78.5 C40.1818182,77.4204545 42.7272727,73.5 50,73.5 C57.2727273,73.5 59.8181818,77.4204545 58,78.5 Z" transform="matrix(1 0 0 -1 0 153.5)"/>
    <circle cx="30" cy="39" r="6" fill="#A64A55"/>
    <circle cx="70" cy="39" r="6" fill="#A64A55"/>
  </g>
</svg>
