<svg xmlns="http://www.w3.org/2000/svg" viewBox="0 0 117 28">
  <path fill="#212529" fill-rule="evenodd" d="M18.2588362 27.475h10.9603179l-7.8753772-13.5L29.7458513.525H18.7604526l-3.4360722 7.55h-.4012931L11.5120959.525H0l8.0007813 13.45-7.4490033 13.5h10.4336207l3.4360722-7.625h.4012931l3.4360722 7.625zM43.18917 28c9.154499 0 12.615652-5.75 12.665814-9.875h-9.029095c-.025081 1.7-1.680415 2.675-3.68688 2.675-1.855981 0-3.737042-1.225-3.737042-3.7v-1.15h16.528259v-2.825C55.930226 4.9 50.613093 0 42.812958 0c-7.122953 0-13.2677533 4.05-13.2677533 13.125v1.65c0 9.1 5.7184263 13.225 13.6439653 13.225zm-3.787203-17.3c0-2.25 1.454687-3.775 3.511314-3.775 2.056627 0 3.36083 1.525 3.36083 3.775h-6.872144zm20.190059 16.775h10.157732V12.65c0-3 1.680414-4.225 3.310668-4.225 1.254041 0 3.235425.625 3.235425 4.15v14.9h10.157732v-17.45c0-6.6-3.385911-9.875-8.753206-9.875-4.740275 0-7.148033 2.85-7.800135 4.9h-.501616V.525h-9.8066v26.95zm44.041918.525c9.154499 0 12.615652-5.75 12.665814-9.875h-9.029095c-.025081 1.7-1.680415 2.675-3.686881 2.675-1.85598 0-3.737042-1.225-3.737042-3.7v-1.15H116.375v-2.825C116.375 4.9 111.057866 0 103.257732 0c-7.122953 0-13.267754 4.05-13.267754 13.125v1.65c0 9.1 5.718427 13.225 13.643966 13.225zM99.84674 10.7c0-2.25 1.454688-3.775 3.511315-3.775s3.36083 1.525 3.36083 3.775H99.84674z"/>
</svg>
